<svg width="430" height="354" viewBox="0 0 430 354" fill="none" xmlns="http://www.w3.org/2000/svg">
<circle cx="176.5" cy="177.497" r="176.5" fill="url(#paint0_linear_1_2)"/>
<path d="M176.5 349.939L27.1604 91.2756L325.84 91.2756L176.5 349.939Z" fill="url(#paint1_linear_1_2)"/>
<path d="M176.5 349.939L27.1604 91.2756L325.84 91.2756L176.5 349.939Z" fill="url(#paint2_linear_1_2)" fill-opacity="0.2"/>
<path d="M80.1623 75.4673C80.1452 76.4447 80.0029 77.3247 79.7353 78.1072C79.4806 78.8773 79.1449 79.5571 78.7283 80.1466C78.3117 80.7361 77.8269 81.2355 77.2737 81.6449C76.7206 82.0542 76.1498 82.3871 75.5612 82.6435C74.9727 82.8998 74.3726 83.0862 73.7612 83.2025C73.1623 83.319 72.5964 83.3726 72.0633 83.3633L52.9661 83.0299L53.0525 78.0795L72.1497 78.4129C73.1017 78.4295 73.8428 78.1631 74.3729 77.6137C74.9158 77.0645 75.1954 76.3202 75.2118 75.3809C75.2198 74.9239 75.1573 74.5038 75.0243 74.1206C74.8914 73.7374 74.694 73.4038 74.4323 73.1199C74.1833 72.8362 73.8698 72.6149 73.4916 72.4559C73.1262 72.2971 72.715 72.2138 72.258 72.2058L60.8721 72.0071C60.0724 71.9931 59.2117 71.8384 58.2899 71.543C57.3684 71.2349 56.5133 70.7565 55.7247 70.1079C54.9488 69.4595 54.3033 68.6165 53.7881 67.5791C53.2856 66.5418 53.0473 65.2806 53.0733 63.7955C53.0992 62.3104 53.3812 61.0646 53.9194 60.0582C54.4704 59.0394 55.145 58.2195 55.9431 57.5985C56.7541 56.9651 57.6253 56.5169 58.5568 56.2538C59.4885 55.978 60.3542 55.8471 61.1539 55.8611L78.0043 56.1552L77.9179 61.1056L61.0675 60.8115C60.1282 60.7951 59.387 61.0679 58.8439 61.6298C58.3135 62.1919 58.0401 62.9426 58.0237 63.8819C58.0071 64.8339 58.2541 65.5937 58.7648 66.1613C59.2884 66.7164 60.0198 67.0022 60.9591 67.0186L72.3451 67.2173L72.3832 67.218C72.9161 67.24 73.4796 67.326 74.0737 67.476C74.6681 67.6134 75.2548 67.8268 75.8338 68.1162C76.4256 68.4059 76.9842 68.7712 77.5098 69.212C78.0356 69.6402 78.4964 70.1562 78.8922 70.7598C79.3006 71.3637 79.6187 72.055 79.8464 72.8335C80.074 73.612 80.1793 74.4899 80.1623 75.4673ZM106.4 77.0109C106.385 77.8613 106.263 78.6274 106.036 79.3091C105.808 79.9781 105.512 80.5697 105.148 81.0839C104.783 81.5854 104.363 82.0161 103.887 82.3761C103.411 82.7233 102.911 83.0066 102.387 83.226C101.875 83.4456 101.358 83.608 100.835 83.7131C100.313 83.8056 99.8173 83.8477 99.3477 83.8395L90.4179 83.6837L90.5043 78.7333L99.4341 78.8891C100.094 78.9006 100.592 78.7379 100.928 78.401C101.264 78.064 101.438 77.5718 101.449 76.9245L101.565 70.2605C101.577 69.575 101.415 69.0643 101.078 68.7283C100.754 68.3925 100.268 68.2189 99.6205 68.2076L90.7288 68.0524C90.0561 68.0407 89.5453 68.2032 89.1966 68.5399C88.8482 68.864 88.6683 69.3497 88.657 69.997L88.3063 90.0843L83.3559 89.9979L83.7066 69.9106C83.7214 69.0602 83.8426 68.3005 84.0701 67.6315C84.2976 66.9625 84.5935 66.3772 84.9578 65.8757C85.335 65.3617 85.7615 64.9311 86.2374 64.5839C86.7135 64.224 87.2074 63.9342 87.7191 63.7146C88.2435 63.4952 88.7668 63.3393 89.289 63.2468C89.8241 63.1419 90.3202 63.0934 90.7771 63.1014L99.7069 63.2572C100.557 63.2721 101.317 63.3933 101.986 63.6208C102.655 63.8483 103.24 64.1442 103.742 64.5085C104.256 64.873 104.687 65.2932 105.034 65.769C105.394 66.2451 105.684 66.7454 105.903 67.2698C106.123 67.7815 106.279 68.2985 106.371 68.8207C106.476 69.3431 106.525 69.8391 106.517 70.3088L106.4 77.0109ZM132.889 70.6548C132.877 71.3403 132.744 72.0807 132.488 72.8762C132.233 73.659 131.827 74.3883 131.269 75.0643C130.724 75.7277 130.01 76.2803 129.126 76.7219C128.255 77.1638 127.198 77.3739 125.954 77.3522L117.024 77.1963L117.106 72.4934L126.036 72.6493C126.709 72.6611 127.233 72.467 127.608 72.0673C127.983 71.6548 128.176 71.144 128.187 70.5347C128.198 69.8873 127.998 69.3759 127.585 69.0005C127.185 68.6253 126.693 68.4326 126.11 68.4224L117.18 68.2665C116.507 68.2548 115.983 68.4552 115.608 68.8676C115.232 69.2674 115.039 69.7719 115.029 70.3812L114.908 77.2927C114.897 77.9528 115.091 78.4704 115.491 78.8456C115.903 79.221 116.414 79.4141 117.023 79.4247L125.915 79.5799L125.832 84.3018L116.903 84.146C116.217 84.134 115.477 84.0004 114.681 83.7453C113.898 83.4904 113.169 83.0904 112.493 82.5453C111.83 81.9878 111.277 81.2734 110.835 80.4023C110.394 79.5185 110.184 78.4546 110.205 77.2106L110.327 70.261C110.339 69.5756 110.472 68.8415 110.727 68.0587C110.982 67.2632 111.382 66.5338 111.927 65.8703C112.485 65.1944 113.199 64.6355 114.07 64.1936C114.954 63.7519 116.018 63.5419 117.262 63.5637L126.192 63.7195C126.877 63.7315 127.611 63.8649 128.394 64.1198C129.189 64.375 129.919 64.7813 130.582 65.3389C131.258 65.884 131.817 66.5984 132.259 67.4822C132.701 68.3534 132.911 69.4109 132.889 70.6548ZM155.916 84.8269L142.492 84.5926C141.807 84.5807 141.06 84.447 140.252 84.1917C139.444 83.9363 138.695 83.5296 138.007 82.9716C137.331 82.4011 136.766 81.6739 136.312 80.7899C135.87 79.8933 135.661 78.8041 135.683 77.522L135.8 70.8199C135.808 70.3503 135.868 69.8561 135.978 69.3375C136.102 68.819 136.282 68.3079 136.519 67.8042C136.757 67.2878 137.058 66.7978 137.421 66.3344C137.797 65.8711 138.243 65.4662 138.757 65.1197C139.283 64.7734 139.885 64.4982 140.561 64.2941C141.238 64.0901 142.001 63.9955 142.852 64.0103L156.275 64.2446L156.189 69.195L142.765 68.9607C142.118 68.9494 141.62 69.1058 141.272 69.4299C140.936 69.7541 140.762 70.259 140.75 70.9444L140.634 77.6084C140.622 78.2558 140.785 78.7538 141.122 79.1025C141.458 79.4512 141.957 79.6314 142.617 79.6429L156.002 79.8765L155.916 84.8269ZM178.999 69.5932L170.354 69.4423L170.082 85.0742L165.074 84.9868L165.347 69.3549L158.911 69.2426L158.998 64.2922L165.433 64.4045L165.551 57.6833L170.558 57.7707L170.441 64.4919L179.085 64.6428L178.999 69.5932ZM200.152 69.9624L189.014 69.768C188.341 69.7563 187.83 69.9188 187.481 70.2555C187.133 70.5795 186.953 71.0652 186.942 71.7126L186.703 85.3643L181.753 85.2779L181.991 71.6262C182.006 70.7757 182.127 70.016 182.355 69.347C182.582 68.6781 182.878 68.0928 183.243 67.5913C183.62 67.0773 184.046 66.6467 184.522 66.2994C184.998 65.9395 185.492 65.6498 186.004 65.4302C186.528 65.2108 187.052 65.0548 187.574 64.9624C188.109 64.8574 188.605 64.8089 189.062 64.8169L200.238 65.012L200.152 69.9624ZM225.462 72.2707C225.45 72.9561 225.316 73.6966 225.061 74.4921C224.806 75.2749 224.4 76.0042 223.842 76.6801C223.297 77.3436 222.583 77.8961 221.699 78.3378C220.828 78.7797 219.77 78.9898 218.527 78.9681L209.597 78.8122L209.679 74.1093L218.609 74.2652C219.281 74.2769 219.805 74.0829 220.181 73.6831C220.556 73.2707 220.749 72.7598 220.76 72.1505C220.771 71.5032 220.57 70.9918 220.158 70.6164C219.758 70.2412 219.266 70.0485 218.682 70.0383L209.753 69.8824C209.08 69.8707 208.556 70.071 208.18 70.4835C207.805 70.8832 207.612 71.3878 207.602 71.997L207.481 78.9086C207.469 79.5686 207.664 80.0863 208.063 80.4615C208.476 80.8369 208.987 81.0299 209.596 81.0406L218.488 81.1958L218.405 85.9177L209.475 85.7618C208.79 85.7499 208.05 85.6163 207.254 85.3612C206.471 85.1063 205.742 84.7063 205.066 84.1612C204.402 83.6036 203.85 82.8893 203.408 82.0182C202.966 81.1343 202.756 80.0705 202.778 78.8265L202.899 71.8769C202.911 71.1914 203.045 70.4573 203.3 69.6745C203.555 68.8791 203.955 68.1496 204.5 67.4862C205.057 66.8103 205.772 66.2513 206.643 65.8095C207.527 65.3678 208.591 65.1578 209.835 65.1795L218.764 65.3354C219.45 65.3473 220.184 65.4808 220.967 65.7357C221.762 65.9908 222.492 66.3972 223.155 66.9547C223.831 67.4998 224.39 68.2143 224.832 69.0981C225.273 69.9692 225.484 71.0268 225.462 72.2707Z" fill="url(#paint3_linear_1_2)"/>
<path d="M156.54 99.6465C156.516 100.995 156.492 102.302 156.468 103.567C156.456 104.109 156.444 104.663 156.432 105.229C156.432 105.795 156.426 106.355 156.414 106.909C156.414 107.451 156.408 107.975 156.396 108.481C156.396 108.975 156.396 109.414 156.396 109.8C156.396 110.607 156.402 111.582 156.414 112.727C156.426 113.871 156.438 115.045 156.45 116.25C156.474 117.454 156.504 118.61 156.54 119.718C156.576 120.826 156.618 121.748 156.667 122.482C156.835 122.507 157.058 122.537 157.335 122.573C157.624 122.597 157.925 122.621 158.238 122.645C158.551 122.657 158.859 122.669 159.16 122.681C159.461 122.693 159.714 122.699 159.918 122.699C160.762 122.699 161.623 122.645 162.502 122.537C163.393 122.416 164.248 122.199 165.067 121.886C165.898 121.573 166.675 121.145 167.398 120.604C168.133 120.049 168.771 119.339 169.313 118.472C169.867 117.604 170.301 116.563 170.614 115.346C170.927 114.118 171.083 112.672 171.083 111.01C171.083 109.167 170.861 107.529 170.415 106.096C169.969 104.651 169.313 103.434 168.446 102.447C167.591 101.459 166.525 100.712 165.248 100.207C163.983 99.6886 162.526 99.4297 160.876 99.4297C160.551 99.4297 160.183 99.4417 159.774 99.4658C159.364 99.4779 158.955 99.4959 158.545 99.52C158.148 99.5321 157.769 99.5561 157.407 99.5923C157.058 99.6164 156.769 99.6344 156.54 99.6465ZM152.583 98.0205C152.861 98.0325 153.119 98.0446 153.36 98.0566C153.565 98.0687 153.776 98.0807 153.993 98.0928C154.209 98.0928 154.384 98.0928 154.517 98.0928C154.745 98.0928 155.125 98.0807 155.655 98.0566C156.197 98.0325 156.811 98.0085 157.498 97.9844C158.184 97.9603 158.895 97.9362 159.629 97.9121C160.376 97.888 161.075 97.876 161.725 97.876C163.472 97.876 165.134 98.0928 166.711 98.5264C168.289 98.96 169.674 99.6706 170.867 100.658C172.059 101.646 173.005 102.941 173.703 104.542C174.402 106.144 174.751 108.114 174.751 110.45C174.751 112.124 174.564 113.63 174.191 114.967C173.83 116.304 173.318 117.484 172.655 118.508C171.993 119.532 171.198 120.411 170.271 121.145C169.355 121.868 168.337 122.464 167.217 122.934C166.109 123.404 164.923 123.747 163.658 123.964C162.394 124.181 161.087 124.289 159.738 124.289C159.256 124.289 158.672 124.271 157.985 124.235C157.311 124.211 156.63 124.181 155.944 124.145C155.257 124.108 154.607 124.072 153.993 124.036C153.39 124.012 152.921 124 152.583 124V123.928C152.656 123.675 152.722 123.362 152.782 122.988C152.854 122.615 152.915 122.151 152.963 121.597C153.011 121.043 153.047 120.387 153.071 119.628C153.095 118.857 153.107 117.96 153.107 116.936V105.175C153.107 104.151 153.095 103.254 153.071 102.483C153.047 101.7 153.011 101.032 152.963 100.478C152.915 99.9115 152.854 99.4357 152.782 99.0503C152.722 98.6649 152.656 98.3457 152.583 98.0928V98.0205ZM178.78 104.579C179.96 104.579 181.171 104.579 182.411 104.579C183.652 104.567 184.802 104.555 185.862 104.542C186.922 104.518 187.831 104.494 188.59 104.47C189.361 104.446 189.867 104.41 190.107 104.362L189.403 106.313C189.078 106.229 188.71 106.15 188.301 106.078C187.939 106.018 187.5 105.964 186.982 105.916C186.476 105.855 185.886 105.825 185.211 105.825C184.971 105.825 184.694 105.837 184.38 105.861C184.067 105.873 183.766 105.891 183.477 105.916C183.14 105.94 182.797 105.964 182.447 105.988V113.124C183.423 113.112 184.302 113.088 185.085 113.052C185.868 113.016 186.536 112.967 187.09 112.907C187.741 112.859 188.313 112.793 188.807 112.708L188.373 114.858C187.711 114.774 187.042 114.702 186.368 114.642C185.79 114.581 185.151 114.533 184.453 114.497C183.754 114.449 183.086 114.425 182.447 114.425V122.627C183.567 122.627 184.597 122.585 185.537 122.5C186.476 122.404 187.295 122.302 187.994 122.193C188.813 122.061 189.553 121.91 190.216 121.742L189.8 124.108C189.62 124.096 189.325 124.078 188.915 124.054C188.518 124.042 188.096 124.03 187.65 124.018C187.217 124.018 186.807 124.012 186.422 124C186.036 124 185.771 124 185.627 124H178.78V123.928C178.864 123.675 178.936 123.35 178.997 122.952C179.069 122.555 179.123 122.067 179.159 121.489C179.207 120.899 179.243 120.2 179.268 119.393C179.292 118.586 179.304 117.641 179.304 116.557V112.004C179.304 110.92 179.292 109.98 179.268 109.186C179.243 108.379 179.207 107.686 179.159 107.108C179.123 106.518 179.069 106.024 178.997 105.626C178.936 105.229 178.864 104.904 178.78 104.651V104.579ZM203.043 108.354H202.682C202.609 108.15 202.489 107.891 202.32 107.578C202.164 107.264 201.947 106.957 201.67 106.656C201.405 106.355 201.074 106.102 200.676 105.897C200.279 105.681 199.803 105.572 199.249 105.572C198.827 105.572 198.448 105.645 198.111 105.789C197.786 105.922 197.509 106.108 197.28 106.349C197.051 106.59 196.876 106.879 196.756 107.216C196.635 107.541 196.575 107.897 196.575 108.282C196.575 108.909 196.762 109.505 197.135 110.071C197.521 110.637 197.996 111.203 198.562 111.769C199.129 112.323 199.743 112.883 200.405 113.449C201.068 114.015 201.682 114.605 202.248 115.22C202.814 115.834 203.284 116.484 203.657 117.171C204.043 117.857 204.235 118.592 204.235 119.375C204.235 119.953 204.127 120.549 203.91 121.164C203.705 121.778 203.368 122.332 202.898 122.826C202.429 123.319 201.826 123.723 201.092 124.036C200.357 124.361 199.466 124.524 198.418 124.524C197.84 124.524 197.286 124.476 196.756 124.379C196.238 124.283 195.756 124.163 195.311 124.018C194.877 123.886 194.486 123.741 194.136 123.584C193.799 123.416 193.516 123.259 193.287 123.115L193.612 119.7H193.992C194.112 120.122 194.287 120.543 194.516 120.965C194.756 121.386 195.046 121.772 195.383 122.121C195.732 122.458 196.136 122.735 196.593 122.952C197.063 123.157 197.599 123.259 198.201 123.259C198.623 123.259 199.02 123.193 199.394 123.061C199.767 122.916 200.086 122.717 200.351 122.464C200.628 122.211 200.845 121.904 201.001 121.543C201.158 121.17 201.236 120.754 201.236 120.296C201.236 119.754 201.128 119.255 200.911 118.797C200.694 118.327 200.405 117.882 200.044 117.46C199.683 117.026 199.273 116.611 198.815 116.213C198.37 115.816 197.906 115.412 197.424 115.003C196.943 114.593 196.473 114.178 196.015 113.756C195.569 113.323 195.166 112.859 194.805 112.365C194.443 111.871 194.154 111.347 193.937 110.793C193.721 110.227 193.612 109.607 193.612 108.933C193.612 108.222 193.763 107.584 194.064 107.018C194.365 106.451 194.763 105.976 195.256 105.59C195.75 105.193 196.316 104.892 196.955 104.687C197.593 104.47 198.255 104.362 198.942 104.362C199.448 104.362 199.917 104.398 200.351 104.47C200.797 104.542 201.194 104.633 201.543 104.741C201.905 104.838 202.218 104.94 202.483 105.048C202.748 105.145 202.965 105.223 203.133 105.283L203.043 108.354ZM208.68 112.004C208.68 110.92 208.668 109.98 208.644 109.186C208.619 108.379 208.583 107.686 208.535 107.108C208.499 106.518 208.445 106.024 208.373 105.626C208.312 105.229 208.24 104.904 208.156 104.651V104.579H212.347V104.651C212.263 104.904 212.185 105.229 212.112 105.626C212.052 106.024 211.998 106.518 211.95 107.108C211.914 107.686 211.883 108.379 211.859 109.186C211.835 109.98 211.823 110.92 211.823 112.004V116.557C211.823 117.641 211.835 118.586 211.859 119.393C211.883 120.2 211.914 120.899 211.95 121.489C211.998 122.067 212.052 122.555 212.112 122.952C212.185 123.35 212.263 123.675 212.347 123.928V124H208.156V123.928C208.24 123.675 208.312 123.35 208.373 122.952C208.445 122.555 208.499 122.067 208.535 121.489C208.583 120.899 208.619 120.2 208.644 119.393C208.668 118.586 208.68 117.641 208.68 116.557V112.004ZM235.129 121.814C235.129 121.971 235.111 122.103 235.075 122.211C235.051 122.32 234.984 122.41 234.876 122.482C234.021 123.085 233.021 123.566 231.877 123.928C230.745 124.277 229.414 124.452 227.884 124.452C226.162 124.452 224.59 124.205 223.169 123.711C221.76 123.217 220.549 122.531 219.538 121.651C218.526 120.76 217.737 119.694 217.171 118.454C216.617 117.213 216.34 115.84 216.34 114.334C216.34 113.046 216.593 111.793 217.099 110.577C217.617 109.36 218.357 108.282 219.321 107.343C220.284 106.403 221.453 105.651 222.826 105.084C224.211 104.518 225.77 104.235 227.505 104.235C228.408 104.235 229.263 104.29 230.07 104.398C230.877 104.494 231.654 104.651 232.401 104.868L233.756 108.12L233.575 108.246C232.853 107.415 231.979 106.759 230.956 106.277C229.932 105.783 228.757 105.536 227.433 105.536C226.349 105.536 225.349 105.711 224.434 106.06C223.53 106.409 222.741 106.921 222.067 107.596C221.404 108.258 220.887 109.077 220.513 110.053C220.14 111.028 219.953 112.136 219.953 113.377C219.953 114.774 220.128 116.069 220.477 117.261C220.826 118.454 221.35 119.489 222.049 120.369C222.747 121.236 223.609 121.916 224.632 122.41C225.668 122.904 226.873 123.151 228.246 123.151C229.426 123.151 230.341 123 230.992 122.699C231.654 122.398 231.985 122.055 231.985 121.669V120.712C231.985 120.086 231.979 119.544 231.967 119.086C231.955 118.628 231.937 118.237 231.913 117.912C231.889 117.574 231.853 117.285 231.805 117.044C231.769 116.804 231.72 116.581 231.66 116.376V116.304H235.508V116.376C235.448 116.557 235.394 116.773 235.346 117.026C235.298 117.279 235.255 117.58 235.219 117.93C235.195 118.279 235.171 118.688 235.147 119.158C235.135 119.628 235.129 120.17 235.129 120.784V121.814ZM256.628 124.253H255.923L241.561 110.125V116.557C241.561 117.641 241.567 118.586 241.579 119.393C241.591 120.2 241.609 120.899 241.633 121.489C241.669 122.067 241.711 122.555 241.759 122.952C241.819 123.35 241.892 123.675 241.976 123.928V124H239.266V123.928C239.35 123.675 239.423 123.35 239.483 122.952C239.543 122.555 239.591 122.067 239.627 121.489C239.664 120.899 239.688 120.2 239.7 119.393C239.712 118.586 239.718 117.641 239.718 116.557V112.004C239.718 110.92 239.712 109.98 239.7 109.186C239.688 108.379 239.664 107.686 239.627 107.108C239.591 106.518 239.543 106.024 239.483 105.626C239.423 105.229 239.35 104.904 239.266 104.651V104.579H240.386L254.767 118.779V112.004C254.767 110.92 254.761 109.98 254.749 109.186C254.737 108.379 254.713 107.686 254.677 107.108C254.653 106.518 254.617 106.024 254.568 105.626C254.52 105.229 254.454 104.904 254.37 104.651V104.579H257.061V104.651C256.977 104.904 256.905 105.229 256.845 105.626C256.797 106.024 256.754 106.518 256.718 107.108C256.682 107.686 256.658 108.379 256.646 109.186C256.634 109.98 256.628 110.92 256.628 112.004V124.253ZM270.611 108.354H270.25C270.178 108.15 270.057 107.891 269.889 107.578C269.732 107.264 269.515 106.957 269.238 106.656C268.973 106.355 268.642 106.102 268.245 105.897C267.847 105.681 267.371 105.572 266.817 105.572C266.396 105.572 266.016 105.645 265.679 105.789C265.354 105.922 265.077 106.108 264.848 106.349C264.619 106.59 264.445 106.879 264.324 107.216C264.204 107.541 264.144 107.897 264.144 108.282C264.144 108.909 264.33 109.505 264.704 110.071C265.089 110.637 265.565 111.203 266.131 111.769C266.697 112.323 267.311 112.883 267.974 113.449C268.636 114.015 269.25 114.605 269.816 115.22C270.382 115.834 270.852 116.484 271.226 117.171C271.611 117.857 271.804 118.592 271.804 119.375C271.804 119.953 271.695 120.549 271.478 121.164C271.274 121.778 270.936 122.332 270.467 122.826C269.997 123.319 269.395 123.723 268.66 124.036C267.925 124.361 267.034 124.524 265.986 124.524C265.408 124.524 264.854 124.476 264.324 124.379C263.806 124.283 263.325 124.163 262.879 124.018C262.445 123.886 262.054 123.741 261.705 123.584C261.367 123.416 261.084 123.259 260.855 123.115L261.181 119.7H261.56C261.68 120.122 261.855 120.543 262.084 120.965C262.325 121.386 262.614 121.772 262.951 122.121C263.3 122.458 263.704 122.735 264.162 122.952C264.631 123.157 265.167 123.259 265.769 123.259C266.191 123.259 266.589 123.193 266.962 123.061C267.335 122.916 267.654 122.717 267.919 122.464C268.196 122.211 268.413 121.904 268.57 121.543C268.726 121.17 268.805 120.754 268.805 120.296C268.805 119.754 268.696 119.255 268.479 118.797C268.263 118.327 267.974 117.882 267.612 117.46C267.251 117.026 266.841 116.611 266.384 116.213C265.938 115.816 265.474 115.412 264.993 115.003C264.511 114.593 264.041 114.178 263.583 113.756C263.138 113.323 262.734 112.859 262.373 112.365C262.012 111.871 261.723 111.347 261.506 110.793C261.289 110.227 261.181 109.607 261.181 108.933C261.181 108.222 261.331 107.584 261.632 107.018C261.933 106.451 262.331 105.976 262.825 105.59C263.318 105.193 263.885 104.892 264.523 104.687C265.161 104.47 265.824 104.362 266.51 104.362C267.016 104.362 267.486 104.398 267.919 104.47C268.365 104.542 268.762 104.633 269.112 104.741C269.473 104.838 269.786 104.94 270.051 105.048C270.316 105.145 270.533 105.223 270.702 105.283L270.611 108.354Z" fill="url(#paint4_linear_1_2)"/>
<defs>
<linearGradient id="paint0_linear_1_2" x1="-4.41093e-06" y1="74.7681" x2="322.664" y2="303.667" gradientUnits="userSpaceOnUse">
<stop stop-color="#013540"/>
<stop offset="1" stop-color="#36565C"/>
</linearGradient>
<linearGradient id="paint1_linear_1_2" x1="284.744" y1="244.374" x2="-30.3359" y2="59.6004" gradientUnits="userSpaceOnUse">
<stop stop-color="#1A1919"/>
<stop offset="0.9999" stop-color="#757373"/>
<stop offset="1" stop-color="#767373"/>
</linearGradient>
<linearGradient id="paint2_linear_1_2" x1="33.7832" y1="271.263" x2="405.398" y2="45.1219" gradientUnits="userSpaceOnUse">
<stop stop-color="#1A1919"/>
<stop offset="1" stop-color="#757373"/>
</linearGradient>
<linearGradient id="paint3_linear_1_2" x1="17.5686" y1="-28.9022" x2="370.357" y2="-18.2596" gradientUnits="userSpaceOnUse">
<stop offset="0.012005" stop-color="#BEB5B5"/>
<stop offset="1" stop-color="#7B7272"/>
</linearGradient>
<linearGradient id="paint4_linear_1_2" x1="113.833" y1="26.1338" x2="475.505" y2="31.6372" gradientUnits="userSpaceOnUse">
<stop offset="0.012005" stop-color="#820C0C"/>
<stop offset="1" stop-color="#A30F0F"/>
</linearGradient>
</defs>
</svg>
